<?xml version="1.0" encoding="UTF-8" standalone="no"?><!-- Generator: Gravit.io --><svg xmlns="http://www.w3.org/2000/svg" xmlns:xlink="http://www.w3.org/1999/xlink" style="isolation:isolate" viewBox="6.568 0 499.391 511.996" width="499.391pt" height="511.996pt"><defs><clipPath id="_clipPath_VF2MDfCDgpUUdTIhY0aJO8E2XH15cOY9"><rect x="6.568" y="0" width="499.391" height="511.996"/></clipPath></defs><g clip-path="url(#_clipPath_VF2MDfCDgpUUdTIhY0aJO8E2XH15cOY9)"><g><path d=" M 163.022 71.493 L 163.022 56.109 C 163.022 25.171 188.082 0 218.886 0 L 449.566 0 L 449.566 0 C 480.37 0 505.432 25.171 505.43 56.109 L 505.43 71.467 C 505.779 74.448 505.959 77.481 505.959 80.556 L 505.959 156.749 C 505.959 159.823 505.779 162.856 505.43 165.837 L 505.43 182.323 C 505.43 213.261 480.369 238.431 449.565 238.431 L 331.123 238.431 C 342.096 248.683 348.978 263.295 348.978 279.499 L 348.978 313.563 C 348.978 323.26 333.977 323.26 333.977 313.563 L 333.977 279.499 C 333.977 257.374 316.51 239.284 294.721 238.431 L 288.49 238.431 L 240.76 286.415 C 236.005 291.195 227.942 287.594 227.942 281.126 L 227.942 238.431 L 62.433 238.39 C 39.9 238.39 21.569 256.831 21.569 279.499 L 21.569 405.709 C 21.569 428.376 39.9 446.817 62.433 446.817 L 226.629 446.817 C 228.625 446.817 230.539 447.613 231.946 449.028 L 269.056 486.337 L 269.056 454.317 C 269.056 450.174 272.414 446.817 276.557 446.817 L 293.114 446.817 C 315.646 446.817 333.977 428.376 333.977 405.709 L 333.977 354.5 C 333.977 344.803 348.978 344.803 348.978 354.5 L 348.978 405.709 C 348.978 436.647 323.918 461.817 293.114 461.817 L 284.057 461.817 L 284.057 504.512 C 284.057 510.98 275.994 514.581 271.239 509.801 L 223.51 461.817 L 62.433 461.817 C 31.63 461.817 6.568 436.648 6.568 405.709 L 6.568 279.496 C 6.568 248.558 31.629 223.387 62.433 223.387 L 180.877 223.387 C 169.904 213.136 163.022 198.523 163.022 182.32 L 163.022 165.812 C 162.674 162.839 162.496 159.814 162.496 156.749 L 162.496 80.556 C 162.496 77.49 162.674 74.466 163.022 71.493 L 163.022 71.493 Z " fill="rgb(0,0,0)"/><path d=" M 56.073 192.03 C 60.216 192.03 63.573 188.673 63.573 184.53 C 63.573 158.275 82.685 136.428 107.671 132.245 L 100.606 139.097 C 93.524 145.966 103.648 155.846 111.049 149.866 L 132.155 129.395 C 135.193 125.806 135.193 122.217 132.155 118.627 L 111.049 98.156 C 104.087 91.405 93.644 102.173 100.606 108.924 L 108.868 116.938 C 75.002 120.702 48.573 149.572 48.573 184.53 C 48.573 188.673 51.93 192.03 56.073 192.03 L 56.073 192.03 Z " fill="rgb(0,0,0)"/><path d=" M 455.828 266.015 C 451.685 266.015 448.328 269.372 448.328 273.516 C 448.328 299.77 429.217 321.616 404.23 325.799 L 411.294 318.948 C 418.255 312.197 407.812 301.428 400.851 308.18 L 379.745 328.649 C 376.707 332.238 376.707 335.827 379.745 339.418 L 400.851 359.888 C 407.789 366.617 418.271 355.886 411.294 349.12 L 403.032 341.107 C 436.898 337.344 463.327 308.474 463.327 273.517 C 463.328 269.372 459.971 266.015 455.828 266.015 L 455.828 266.015 Z " fill="rgb(0,0,0)"/><path d=" M 334.226 44.249 C 330.083 44.249 326.726 47.606 326.726 51.75 L 326.726 71.888 L 284.011 71.888 C 274.314 71.888 274.314 86.889 284.011 86.889 L 302.537 86.889 C 303.501 98.242 307.697 120.295 324.699 144.454 C 315.144 155.904 301.963 167.941 283.786 179.139 C 275.747 184.093 283.491 196.934 291.653 191.91 C 309.968 180.628 323.791 168.521 334.227 156.573 C 344.664 168.521 358.487 180.628 376.802 191.91 C 384.796 196.83 392.906 184.214 384.669 179.139 C 366.491 167.941 353.311 155.904 343.756 144.454 C 360.758 120.295 364.953 98.241 365.917 86.889 L 384.444 86.889 C 394.141 86.889 394.141 71.888 384.444 71.888 L 341.728 71.888 L 341.728 51.75 C 341.727 47.606 338.369 44.249 334.226 44.249 L 334.226 44.249 Z  M 343.887 113.208 C 341.633 118.657 338.517 124.875 334.226 131.526 C 329.936 124.875 326.82 118.657 324.566 113.208 C 320.014 102.201 318.29 92.868 317.647 86.889 L 350.805 86.889 C 350.163 92.868 348.439 102.201 343.887 113.208 L 343.887 113.208 Z " fill="rgb(255,255,255)"/><path d=" M 199.24 351.94 L 199.24 351.94 L 199.24 351.94 Q 191.42 331.47 175.55 282.71 L 175.55 282.71 L 175.55 282.71 Q 173.48 288 164.97 312.15 L 164.97 312.15 L 164.97 312.15 Q 156.46 336.3 150.02 351.94 L 150.02 351.94 L 150.02 351.94 Q 167.96 352.4 178.08 352.4 L 178.08 352.4 L 178.08 352.4 Q 192.34 352.4 199.24 351.94 Z  M 173.25 365.97 L 173.25 365.97 L 173.25 365.97 Q 167.27 365.97 144.27 365.51 L 144.27 365.51 L 144.27 365.51 Q 128.86 404.38 124.95 418.41 L 124.95 418.41 L 124.95 418.41 Q 117.36 416.8 114.255 414.73 L 114.255 414.73 L 114.255 414.73 Q 111.15 412.66 111.15 409.21 L 111.15 409.21 L 111.15 409.21 Q 111.15 406.45 120.925 383.45 L 120.925 383.45 L 120.925 383.45 Q 130.7 360.45 144.73 324.915 L 144.73 324.915 L 144.73 324.915 Q 158.76 289.38 166.81 261.78 L 166.81 261.78 L 166.81 261.78 Q 171.18 261.09 176.47 261.09 L 176.47 261.09 L 176.47 261.09 Q 182.22 261.09 184.52 263.045 L 184.52 263.045 L 184.52 263.045 Q 186.82 265 189.35 273.28 L 189.35 273.28 L 189.35 273.28 Q 203.84 319.97 215.11 349.18 L 215.11 349.18 L 215.11 349.18 Q 233.05 396.1 240.87 411.28 L 240.87 411.28 L 240.87 411.28 Q 234.43 415.88 229.83 415.88 L 229.83 415.88 L 229.83 415.88 Q 222.47 415.88 219.94 409.67 L 219.94 409.67 L 219.94 409.67 Q 215.57 398.4 204.07 365.51 L 204.07 365.51 L 204.07 365.51 Q 178.31 365.97 173.25 365.97 Z " fill="rgb(0,0,0)"/></g></g></svg>